<svg id="Layer_1" data-name="Layer 1" xmlns="http://www.w3.org/2000/svg" viewBox="0 0 17.86 18.43"><defs><style>.cls-1{fill:none;stroke-linecap:round;}.cls-1,.cls-2,.cls-3{stroke:#263651;stroke-miterlimit:10;}.cls-1,.cls-2{stroke-width:2px;}.cls-3{fill:#263651;}</style></defs><path class="cls-1" d="M16.79,9.17l-7.43-8a.51.51,0,0,0-.74,0L1.14,9A.5.5,0,0,0,1,9.37v7.55a.51.51,0,0,0,.51.51H16.28a.51.51,0,0,0,.51-.51V12a.51.51,0,0,0-.51-.51l-5.14.06-1.1,0" transform="translate(0 0)"/><circle class="cls-2" cx="9.23" cy="11.91" r="1.15"/><circle class="cls-3" cx="16.79" cy="3.63" r="0.58"/><line class="cls-1" x1="9.23" y1="11.91" x2="9.23" y2="7.75"/></svg>